<svg viewBox="0 0 575 575" class="roots-wrapper"><g transform="rotate(0 0 0)"><svg viewBoxSize="575" data-root-id="9292629837942" xmlns="http://www.w3.org/2000/svg" xmlns:xlink="http://www.w3.org/1999/xlink" xmlnsSerif="http://www.serif.com/" viewBox="517.8510131835938 517.8499755859375 964.2990112304688 964.300048828125" version="1.1" xml:space="preserve" height="230" width="230" y="144.46499633789062" x="172.49998474121094" preserveAspectRatio="xMinYMin" zoom="1" editorType="buyer" data-layer-role="icon" style="fill-rule: evenodd; clip-rule: evenodd; stroke-linejoin: round; stroke-miterlimit: 2; position: absolute; height: 230px; width: 230px; top: 144.465px; left: 172.5px;"><path transform="matrix(1,0,0,-1,3.86535e-12,2000)" d="M1179.9,877.645L1314.43,1146.72L1314.39,1146.81L1314.48,1146.81L1482.15,1482.15L1053.55,1482.15L1221.22,1146.81L1221.31,1146.81L1133.31,970.814L1179.9,877.645ZM1188.39,1398.82L1347.31,1398.82L1267.85,1239.89L1188.39,1398.82Z" name="Layer %{number}" zoom="1" data-layer-id="0897816937949" style="fill: rgb(234, 189, 35); fill-opacity: 1;"></path><path d="M1060.06,1028.99L1143.32,1195.51L1000,1482.15L517.851,517.851L804.489,517.851L1013.52,935.913L1101.51,760.004L1148.12,853.218L1060.06,1028.99ZM960.38,1015.97L752.986,601.184L652.687,601.184L1000,1295.81L1050.15,1195.51L960.38,1015.97Z" name="Layer %{number}" zoom="1" data-layer-id="8532039937953"></path></svg></g><g transform="rotate(0 0 0)"><svg viewBoxSize="575" data-root-id="7089419137956" xmlns="http://www.w3.org/2000/svg" y="451.4649963378906" viewBox="0 0 0 0" x="287.49998474121094" height="0" width="0" fontUrl="https://fonts.gstatic.com/s/montserrat/v26/JTUHjIg1_i6t8kCHKm4532VJOt5-QNFgpCtr6Ew-Y3tcoqK5.ttf" zoom="1" editorType="buyer" data-layer-role="slogan" style="position: absolute; top: 451.465px; width: 0px; height: 0px; left: 287.5px;"><g data-horizontal-grow="center" zoom="1" root="[object Object]" style="fill: rgb(234, 189, 35); fill-opacity: 1;"><path d="" transform="translate(0, 0)"></path></g></svg></g><g transform="rotate(0 0 0)"><svg viewBoxSize="575" data-root-id="5971106337966" xmlns="http://www.w3.org/2000/svg" y="406.4649963378906" viewBox="-0.1599999964237213 7.230000019073486 444.1600036621094 24.06999969482422" x="65.41998291015625" height="24.06999969482422" width="444.1600036621094" fontUrl="https://fonts.gstatic.com/s/montserrat/v26/JTUHjIg1_i6t8kCHKm4532VJOt5-QNFgpCu170w-Y3tcoqK5.ttf" zoom="1" editorType="buyer" data-layer-role="brandName" style="position: absolute; top: 406.465px; width: 444.16px; height: 24.07px; left: 65.42px;"><g data-horizontal-grow="center" zoom="1" root="[object Object]" style="fill: rgb(0, 0, 0);"><path d="M13.73 30.98L9.63 30.98L-0.16 8.58L4.35 8.58L13.09 28.83L10.50 28.83L19.33 8.58L23.49 8.58L13.73 30.98ZM33.86 30.98L29.57 30.98L39.65 8.58L43.74 8.58L53.86 30.98L49.50 30.98L40.83 10.78L42.50 10.78L33.86 30.98ZM48.54 25.79L34.21 25.79L35.33 22.53L47.42 22.53L48.54 25.79ZM67.07 30.98L63.10 30.98L63.10 8.58L66.53 8.58L76.32 24.93L74.53 24.93L84.16 8.58L87.58 8.58L87.62 30.98L83.68 30.98L83.65 14.75L84.48 14.75L76.29 28.42L74.43 28.42L66.11 14.75L67.07 14.75L67.07 30.98ZM131.17 30.98L115.30 30.98L115.30 8.58L119.46 8.58L119.46 27.46L131.17 27.46L131.17 30.98ZM154.78 30.98L151.01 30.98L151.01 27.52L150.78 26.78L150.78 20.74Q150.78 18.98 149.73 18Q148.67 17.02 146.53 17.02L146.53 17.02Q145.09 17.02 143.70 17.47Q142.30 17.92 141.34 18.72L141.34 18.72L139.78 15.81Q141.15 14.75 143.06 14.22Q144.96 13.70 147.01 13.70L147.01 13.70Q150.72 13.70 152.75 15.47Q154.78 17.25 154.78 20.96L154.78 20.96L154.78 30.98ZM145.63 31.20L145.63 31.20Q143.71 31.20 142.27 30.54Q140.83 29.89 140.05 28.72Q139.26 27.55 139.26 26.08L139.26 26.08Q139.26 24.64 139.95 23.49Q140.64 22.34 142.21 21.66Q143.78 20.99 146.37 20.99L146.37 20.99L151.33 20.99L151.33 23.65L146.66 23.65Q144.61 23.65 143.90 24.30Q143.20 24.96 143.20 25.92L143.20 25.92Q143.20 27.01 144.06 27.65Q144.93 28.29 146.46 28.29L146.46 28.29Q147.94 28.29 149.10 27.62Q150.27 26.94 150.78 25.63L150.78 25.63L151.46 28.03Q150.88 29.54 149.39 30.37Q147.90 31.20 145.63 31.20ZM173.92 30.98L170.08 30.98L163.81 13.89L167.58 13.89L172.96 28.96L171.17 28.96L176.80 13.89L180.16 13.89L185.63 28.96L183.87 28.96L189.41 13.89L192.96 13.89L186.66 30.98L182.82 30.98L177.82 17.63L179.01 17.63L173.92 30.98ZM243.33 31.30L243.33 31.30Q240.77 31.30 238.58 30.45Q236.38 29.60 234.77 28.05Q233.15 26.50 232.26 24.38Q231.36 22.27 231.36 19.78L231.36 19.78Q231.36 17.28 232.26 15.17Q233.15 13.06 234.78 11.50Q236.42 9.95 238.59 9.10Q240.77 8.26 243.36 8.26L243.36 8.26Q246.11 8.26 248.38 9.20Q250.66 10.14 252.22 12L252.22 12L249.54 14.53Q248.32 13.22 246.82 12.56Q245.31 11.90 243.55 11.90L243.55 11.90Q241.79 11.90 240.34 12.48Q238.88 13.06 237.81 14.11Q236.74 15.17 236.14 16.61Q235.55 18.05 235.55 19.78L235.55 19.78Q235.55 21.50 236.14 22.94Q236.74 24.38 237.81 25.44Q238.88 26.50 240.34 27.07Q241.79 27.65 243.55 27.65L243.55 27.65Q245.31 27.65 246.82 26.99Q248.32 26.34 249.54 24.99L249.54 24.99L252.22 27.55Q250.66 29.38 248.38 30.34Q246.11 31.30 243.33 31.30ZM271.94 13.70L271.94 13.70Q273.98 13.70 275.60 14.50Q277.22 15.30 278.14 16.94Q279.07 18.59 279.07 21.18L279.07 21.18L279.07 30.98L275.07 30.98L275.07 21.70Q275.07 19.42 274.00 18.30Q272.93 17.18 271.01 17.18L271.01 17.18Q269.60 17.18 268.51 17.76Q267.42 18.34 266.83 19.47Q266.24 20.61 266.24 22.34L266.24 22.34L266.24 30.98L262.24 30.98L262.24 7.23L266.24 7.23L266.24 18.50L265.38 17.09Q266.27 15.46 267.98 14.58Q269.70 13.70 271.94 13.70ZM304.86 30.98L301.09 30.98L301.09 27.52L300.86 26.78L300.86 20.74Q300.86 18.98 299.81 18Q298.75 17.02 296.61 17.02L296.61 17.02Q295.17 17.02 293.78 17.47Q292.38 17.92 291.42 18.72L291.42 18.72L289.86 15.81Q291.23 14.75 293.14 14.22Q295.04 13.70 297.09 13.70L297.09 13.70Q300.80 13.70 302.83 15.47Q304.86 17.25 304.86 20.96L304.86 20.96L304.86 30.98ZM295.71 31.20L295.71 31.20Q293.79 31.20 292.35 30.54Q290.91 29.89 290.13 28.72Q289.34 27.55 289.34 26.08L289.34 26.08Q289.34 24.64 290.03 23.49Q290.72 22.34 292.29 21.66Q293.86 20.99 296.45 20.99L296.45 20.99L301.41 20.99L301.41 23.65L296.74 23.65Q294.69 23.65 293.98 24.30Q293.28 24.96 293.28 25.92L293.28 25.92Q293.28 27.01 294.14 27.65Q295.01 28.29 296.54 28.29L296.54 28.29Q298.02 28.29 299.18 27.62Q300.35 26.94 300.86 25.63L300.86 25.63L301.54 28.03Q300.96 29.54 299.47 30.37Q297.98 31.20 295.71 31.20ZM337.95 13.70L337.95 13.70Q340 13.70 341.58 14.50Q343.17 15.30 344.06 16.94Q344.96 18.59 344.96 21.18L344.96 21.18L344.96 30.98L340.96 30.98L340.96 21.70Q340.96 19.42 339.97 18.30Q338.98 17.18 337.12 17.18L337.12 17.18Q335.81 17.18 334.80 17.76Q333.79 18.34 333.23 19.46Q332.67 20.58 332.67 22.30L332.67 22.30L332.67 30.98L328.67 30.98L328.67 21.70Q328.67 19.42 327.68 18.30Q326.69 17.18 324.83 17.18L324.83 17.18Q323.52 17.18 322.51 17.76Q321.50 18.34 320.94 19.46Q320.38 20.58 320.38 22.30L320.38 22.30L320.38 30.98L316.38 30.98L316.38 13.89L320.19 13.89L320.19 18.43L319.52 17.09Q320.38 15.42 322.03 14.56Q323.68 13.70 325.79 13.70L325.79 13.70Q328.19 13.70 329.97 14.88Q331.74 16.06 332.32 18.46L332.32 18.46L330.75 17.92Q331.58 16.00 333.50 14.85Q335.42 13.70 337.95 13.70ZM365.95 31.20L365.95 31.20Q363.78 31.20 362.08 30.24Q360.38 29.28 359.41 27.34Q358.43 25.41 358.43 22.43L358.43 22.43Q358.43 19.42 359.44 17.50Q360.45 15.58 362.16 14.64Q363.87 13.70 365.95 13.70L365.95 13.70Q368.48 13.70 370.42 14.78Q372.35 15.87 373.49 17.82Q374.62 19.78 374.62 22.43L374.62 22.43Q374.62 25.09 373.49 27.04Q372.35 28.99 370.42 30.10Q368.48 31.20 365.95 31.20ZM360.29 30.98L356.48 30.98L356.48 7.23L360.48 7.23L360.48 17.86L360.16 22.40L360.29 26.94L360.29 30.98ZM365.50 27.78L365.50 27.78Q366.94 27.78 368.08 27.14Q369.22 26.50 369.89 25.28Q370.56 24.06 370.56 22.43L370.56 22.43Q370.56 20.77 369.89 19.57Q369.22 18.37 368.08 17.73Q366.94 17.09 365.50 17.09L365.50 17.09Q364.06 17.09 362.91 17.73Q361.76 18.37 361.09 19.57Q360.42 20.77 360.42 22.43L360.42 22.43Q360.42 24.06 361.09 25.28Q361.76 26.50 362.91 27.14Q364.06 27.78 365.50 27.78ZM392.86 31.20L392.86 31.20Q390.02 31.20 387.89 30.06Q385.76 28.93 384.59 26.94Q383.42 24.96 383.42 22.43L383.42 22.43Q383.42 19.87 384.56 17.90Q385.70 15.94 387.70 14.82Q389.70 13.70 392.26 13.70L392.26 13.70Q394.75 13.70 396.70 14.78Q398.66 15.87 399.78 17.86Q400.90 19.84 400.90 22.53L400.90 22.53Q400.90 22.78 400.88 23.10Q400.86 23.42 400.83 23.71L400.83 23.71L386.59 23.71L386.59 21.06L398.72 21.06L397.15 21.89Q397.18 20.42 396.54 19.30Q395.90 18.18 394.80 17.54Q393.70 16.90 392.26 16.90L392.26 16.90Q390.78 16.90 389.68 17.54Q388.58 18.18 387.95 19.31Q387.33 20.45 387.33 21.98L387.33 21.98L387.33 22.62Q387.33 24.16 388.03 25.34Q388.74 26.53 390.02 27.17Q391.30 27.81 392.96 27.81L392.96 27.81Q394.40 27.81 395.55 27.36Q396.70 26.91 397.60 25.95L397.60 25.95L399.74 28.42Q398.59 29.76 396.85 30.48Q395.10 31.20 392.86 31.20ZM415.14 30.98L411.14 30.98L411.14 13.89L414.94 13.89L414.94 18.59L414.50 17.22Q415.26 15.49 416.91 14.59Q418.56 13.70 421.02 13.70L421.02 13.70L421.02 17.50Q420.77 17.44 420.54 17.42Q420.32 17.41 420.10 17.41L420.10 17.41Q417.82 17.41 416.48 18.74Q415.14 20.06 415.14 22.69L415.14 22.69L415.14 30.98ZM436.26 31.20L436.26 31.20Q434.11 31.20 432.14 30.64Q430.18 30.08 429.02 29.28L429.02 29.28L430.56 26.24Q431.71 26.98 433.31 27.46Q434.91 27.94 436.51 27.94L436.51 27.94Q438.40 27.94 439.25 27.42Q440.10 26.91 440.10 26.05L440.10 26.05Q440.10 25.34 439.52 24.98Q438.94 24.61 438.02 24.42Q437.09 24.22 435.95 24.06Q434.82 23.90 433.68 23.63Q432.54 23.36 431.62 22.83Q430.69 22.30 430.11 21.41Q429.54 20.51 429.54 19.04L429.54 19.04Q429.54 17.41 430.46 16.21Q431.39 15.01 433.07 14.35Q434.75 13.70 437.06 13.70L437.06 13.70Q438.78 13.70 440.54 14.08Q442.30 14.46 443.46 15.17L443.46 15.17L441.92 18.21Q440.70 17.47 439.47 17.20Q438.24 16.93 437.02 16.93L437.02 16.93Q435.20 16.93 434.32 17.47Q433.44 18.02 433.44 18.85L433.44 18.85Q433.44 19.62 434.02 20Q434.59 20.38 435.52 20.61Q436.45 20.83 437.58 20.98Q438.72 21.12 439.84 21.41Q440.96 21.70 441.90 22.19Q442.85 22.69 443.42 23.58Q444.00 24.48 444.00 25.92L444.00 25.92Q444.00 27.52 443.06 28.70Q442.11 29.89 440.38 30.54Q438.66 31.20 436.26 31.20Z" transform="translate(0, 0)"></path></g></svg></g></svg>