<svg viewBoxSize="575" data-root-id="2462116466794" xmlns="http://www.w3.org/2000/svg" xmlns:xlink="http://www.w3.org/1999/xlink" xmlnsSerif="http://www.serif.com/" viewBox="517.8510131835938 517.8499755859375 964.2990112304688 964.300048828125" version="1.1" xml:space="preserve" height="58.628883461378344" width="58.628883461378344" y="258.18555826931083" x="89.99999999999997" preserveAspectRatio="xMinYMin" zoom="1" editorType="buyer" data-layer-role="icon" style="fill-rule: evenodd; clip-rule: evenodd; stroke-linejoin: round; stroke-miterlimit: 2; position: absolute; height: 58.6289px; width: 58.6289px; top: 258.186px; left: 90px; transform: rotate(0deg);"><path transform="matrix(1,0,0,-1,3.86535e-12,2000)" d="M1179.9,877.645L1314.43,1146.72L1314.39,1146.81L1314.48,1146.81L1482.15,1482.15L1053.55,1482.15L1221.22,1146.81L1221.31,1146.81L1133.31,970.814L1179.9,877.645ZM1188.39,1398.82L1347.31,1398.82L1267.85,1239.89L1188.39,1398.82Z" name="Layer %{number}" zoom="1" data-layer-id="1256932766794" style="fill: rgb(234, 189, 35); fill-opacity: 1;"></path><path d="M1060.06,1028.99L1143.32,1195.51L1000,1482.15L517.851,517.851L804.489,517.851L1013.52,935.913L1101.51,760.004L1148.12,853.218L1060.06,1028.99ZM960.38,1015.97L752.986,601.184L652.687,601.184L1000,1295.81L1050.15,1195.51L960.38,1015.97Z" name="Layer %{number}" zoom="1" data-layer-id="9625356466794" style="fill: rgb(255, 255, 255); fill-opacity: 1;"></path></svg>