<svg viewBoxSize="575" data-root-id="3304533466794" xmlns="http://www.w3.org/2000/svg" y="278.70566748079324" viewBox="-0.12000000476837158 5.289999961853027 324.6399841308594 17.580001831054688" x="160.35466015365392" height="17.580001831054688" width="324.6399841308594" fontUrl="https://fonts.gstatic.com/s/montserrat/v26/JTUHjIg1_i6t8kCHKm4532VJOt5-QNFgpCu170w-Y3tcoqK5.ttf" zoom="1" editorType="buyer" data-layer-role="brandName" style="position: absolute; top: 278.706px; width: 324.64px; height: 17.58px; left: 160.355px; transform: rotate(0deg);"><g data-horizontal-grow="left" zoom="1" root="[object Object]" style="fill: rgb(255, 255, 255); fill-opacity: 1;"><path d="M10.03 22.64L7.04 22.64L-0.12 6.27L3.18 6.27L9.57 21.07L7.67 21.07L14.13 6.27L17.17 6.27L10.03 22.64ZM24.75 22.64L21.61 22.64L28.98 6.27L31.97 6.27L39.36 22.64L36.18 22.64L29.84 7.88L31.06 7.88L24.75 22.64ZM35.48 18.85L25.00 18.85L25.82 16.47L34.66 16.47L35.48 18.85ZM49.02 22.64L46.12 22.64L46.12 6.27L48.63 6.27L55.78 18.22L54.47 18.22L61.51 6.27L64.02 6.27L64.04 22.64L61.16 22.64L61.14 10.78L61.75 10.78L55.76 20.77L54.40 20.77L48.32 10.78L49.02 10.78L49.02 22.64ZM95.87 22.64L84.27 22.64L84.27 6.27L87.31 6.27L87.31 20.07L95.87 20.07L95.87 22.64ZM113.13 22.64L110.37 22.64L110.37 20.11L110.21 19.58L110.21 15.16Q110.21 13.87 109.44 13.16Q108.67 12.44 107.10 12.44L107.10 12.44Q106.05 12.44 105.03 12.77Q104.01 13.10 103.31 13.68L103.31 13.68L102.16 11.55Q103.17 10.78 104.56 10.40Q105.95 10.01 107.45 10.01L107.45 10.01Q110.16 10.01 111.65 11.31Q113.13 12.61 113.13 15.32L113.13 15.32L113.13 22.64ZM106.44 22.80L106.44 22.80Q105.04 22.80 103.99 22.32Q102.94 21.85 102.36 20.99Q101.79 20.14 101.79 19.06L101.79 19.06Q101.79 18.01 102.29 17.17Q102.79 16.33 103.94 15.83Q105.09 15.34 106.98 15.34L106.98 15.34L110.61 15.34L110.61 17.28L107.19 17.28Q105.70 17.28 105.18 17.76Q104.67 18.24 104.67 18.95L104.67 18.95Q104.67 19.74 105.30 20.21Q105.93 20.68 107.05 20.68L107.05 20.68Q108.13 20.68 108.98 20.18Q109.83 19.69 110.21 18.73L110.21 18.73L110.70 20.49Q110.28 21.59 109.19 22.20Q108.10 22.80 106.44 22.80ZM127.12 22.64L124.31 22.64L119.73 10.15L122.49 10.15L126.42 21.17L125.11 21.17L129.22 10.15L131.68 10.15L135.68 21.17L134.39 21.17L138.44 10.15L141.04 10.15L136.43 22.64L133.62 22.64L129.97 12.89L130.84 12.89L127.12 22.64ZM177.85 22.87L177.85 22.87Q175.98 22.87 174.38 22.25Q172.77 21.63 171.59 20.50Q170.41 19.37 169.76 17.82Q169.10 16.28 169.10 14.45L169.10 14.45Q169.10 12.63 169.76 11.09Q170.41 9.54 171.61 8.41Q172.80 7.27 174.39 6.65Q175.98 6.03 177.87 6.03L177.87 6.03Q179.89 6.03 181.55 6.72Q183.21 7.41 184.35 8.77L184.35 8.77L182.39 10.62Q181.50 9.66 180.40 9.18Q179.30 8.70 178.01 8.70L178.01 8.70Q176.73 8.70 175.66 9.12Q174.60 9.54 173.82 10.31Q173.03 11.09 172.60 12.14Q172.17 13.19 172.17 14.45L172.17 14.45Q172.17 15.72 172.60 16.77Q173.03 17.82 173.82 18.59Q174.60 19.37 175.66 19.79Q176.73 20.21 178.01 20.21L178.01 20.21Q179.30 20.21 180.40 19.73Q181.50 19.25 182.39 18.27L182.39 18.27L184.35 20.14Q183.21 21.47 181.55 22.17Q179.89 22.87 177.85 22.87ZM198.76 10.01L198.76 10.01Q200.26 10.01 201.44 10.60Q202.62 11.18 203.30 12.38Q203.98 13.59 203.98 15.48L203.98 15.48L203.98 22.64L201.05 22.64L201.05 15.86Q201.05 14.20 200.27 13.38Q199.49 12.56 198.08 12.56L198.08 12.56Q197.05 12.56 196.26 12.98Q195.46 13.40 195.03 14.23Q194.60 15.06 194.60 16.33L194.60 16.33L194.60 22.64L191.67 22.64L191.67 5.29L194.60 5.29L194.60 13.52L193.97 12.49Q194.62 11.30 195.87 10.65Q197.12 10.01 198.76 10.01ZM222.83 22.64L220.07 22.64L220.07 20.11L219.90 19.58L219.90 15.16Q219.90 13.87 219.13 13.16Q218.36 12.44 216.79 12.44L216.79 12.44Q215.74 12.44 214.72 12.77Q213.71 13.10 213.00 13.68L213.00 13.68L211.86 11.55Q212.86 10.78 214.26 10.40Q215.65 10.01 217.14 10.01L217.14 10.01Q219.86 10.01 221.34 11.31Q222.83 12.61 222.83 15.32L222.83 15.32L222.83 22.64ZM216.14 22.80L216.14 22.80Q214.73 22.80 213.68 22.32Q212.63 21.85 212.06 20.99Q211.48 20.14 211.48 19.06L211.48 19.06Q211.48 18.01 211.99 17.17Q212.49 16.33 213.64 15.83Q214.78 15.34 216.68 15.34L216.68 15.34L220.30 15.34L220.30 17.28L216.89 17.28Q215.39 17.28 214.88 17.76Q214.36 18.24 214.36 18.95L214.36 18.95Q214.36 19.74 214.99 20.21Q215.62 20.68 216.75 20.68L216.75 20.68Q217.82 20.68 218.68 20.18Q219.53 19.69 219.90 18.73L219.90 18.73L220.39 20.49Q219.97 21.59 218.89 22.20Q217.80 22.80 216.14 22.80ZM247.01 10.01L247.01 10.01Q248.51 10.01 249.67 10.60Q250.82 11.18 251.48 12.38Q252.13 13.59 252.13 15.48L252.13 15.48L252.13 22.64L249.21 22.64L249.21 15.86Q249.21 14.20 248.49 13.38Q247.76 12.56 246.40 12.56L246.40 12.56Q245.44 12.56 244.71 12.98Q243.97 13.40 243.56 14.22Q243.15 15.04 243.15 16.30L243.15 16.30L243.15 22.64L240.23 22.64L240.23 15.86Q240.23 14.20 239.50 13.38Q238.78 12.56 237.42 12.56L237.42 12.56Q236.46 12.56 235.73 12.98Q234.99 13.40 234.58 14.22Q234.17 15.04 234.17 16.30L234.17 16.30L234.17 22.64L231.25 22.64L231.25 10.15L234.03 10.15L234.03 13.47L233.54 12.49Q234.17 11.27 235.38 10.64Q236.58 10.01 238.12 10.01L238.12 10.01Q239.88 10.01 241.18 10.88Q242.47 11.74 242.90 13.50L242.90 13.50L241.75 13.10Q242.36 11.69 243.76 10.85Q245.16 10.01 247.01 10.01ZM267.48 22.80L267.48 22.80Q265.89 22.80 264.65 22.10Q263.41 21.40 262.69 19.99Q261.98 18.57 261.98 16.40L261.98 16.40Q261.98 14.20 262.72 12.79Q263.45 11.39 264.71 10.70Q265.96 10.01 267.48 10.01L267.48 10.01Q269.32 10.01 270.74 10.81Q272.15 11.60 272.99 13.03Q273.82 14.45 273.82 16.40L273.82 16.40Q273.82 18.34 272.99 19.76Q272.15 21.19 270.74 22.00Q269.32 22.80 267.48 22.80ZM263.34 22.64L260.55 22.64L260.55 5.29L263.48 5.29L263.48 13.05L263.24 16.37L263.34 19.69L263.34 22.64ZM267.15 20.30L267.15 20.30Q268.20 20.30 269.03 19.83Q269.86 19.37 270.35 18.48Q270.85 17.59 270.85 16.40L270.85 16.40Q270.85 15.18 270.35 14.30Q269.86 13.43 269.03 12.96Q268.20 12.49 267.15 12.49L267.15 12.49Q266.10 12.49 265.26 12.96Q264.41 13.43 263.92 14.30Q263.43 15.18 263.43 16.40L263.43 16.40Q263.43 17.59 263.92 18.48Q264.41 19.37 265.26 19.83Q266.10 20.30 267.15 20.30ZM287.15 22.80L287.15 22.80Q285.07 22.80 283.51 21.97Q281.95 21.14 281.10 19.69Q280.25 18.24 280.25 16.40L280.25 16.40Q280.25 14.52 281.08 13.09Q281.91 11.65 283.37 10.83Q284.83 10.01 286.70 10.01L286.70 10.01Q288.53 10.01 289.95 10.81Q291.38 11.60 292.20 13.05Q293.02 14.50 293.02 16.47L293.02 16.47Q293.02 16.65 293.01 16.89Q292.99 17.12 292.97 17.33L292.97 17.33L282.56 17.33L282.56 15.39L291.43 15.39L290.28 16.00Q290.30 14.92 289.84 14.10Q289.37 13.28 288.56 12.82Q287.76 12.35 286.70 12.35L286.70 12.35Q285.63 12.35 284.82 12.82Q284.01 13.28 283.56 14.12Q283.10 14.95 283.10 16.07L283.10 16.07L283.10 16.54Q283.10 17.66 283.62 18.52Q284.13 19.39 285.07 19.86Q286.00 20.33 287.22 20.33L287.22 20.33Q288.27 20.33 289.11 20.00Q289.95 19.67 290.61 18.97L290.61 18.97L292.18 20.77Q291.33 21.75 290.06 22.28Q288.78 22.80 287.15 22.80ZM303.43 22.64L300.50 22.64L300.50 10.15L303.29 10.15L303.29 13.59L302.96 12.58Q303.52 11.32 304.72 10.67Q305.93 10.01 307.73 10.01L307.73 10.01L307.73 12.79Q307.54 12.75 307.38 12.74Q307.21 12.72 307.05 12.72L307.05 12.72Q305.39 12.72 304.41 13.69Q303.43 14.66 303.43 16.58L303.43 16.58L303.43 22.64ZM318.86 22.80L318.86 22.80Q317.30 22.80 315.86 22.40Q314.42 21.99 313.58 21.40L313.58 21.40L314.70 19.18Q315.54 19.72 316.71 20.07Q317.88 20.42 319.05 20.42L319.05 20.42Q320.43 20.42 321.05 20.04Q321.67 19.67 321.67 19.04L321.67 19.04Q321.67 18.52 321.25 18.26Q320.83 17.99 320.15 17.85Q319.47 17.71 318.64 17.59Q317.81 17.47 316.98 17.27Q316.15 17.07 315.47 16.69Q314.79 16.30 314.37 15.65Q313.95 14.99 313.95 13.92L313.95 13.92Q313.95 12.72 314.63 11.85Q315.31 10.97 316.54 10.49Q317.76 10.01 319.45 10.01L319.45 10.01Q320.71 10.01 322.00 10.29Q323.28 10.57 324.13 11.09L324.13 11.09L323.00 13.31Q322.11 12.77 321.21 12.57Q320.31 12.37 319.42 12.37L319.42 12.37Q318.09 12.37 317.45 12.77Q316.80 13.17 316.80 13.78L316.80 13.78Q316.80 14.34 317.23 14.62Q317.65 14.90 318.32 15.06Q319.00 15.23 319.83 15.33Q320.66 15.44 321.48 15.65Q322.30 15.86 322.99 16.22Q323.68 16.58 324.10 17.24Q324.52 17.89 324.52 18.95L324.52 18.95Q324.52 20.11 323.83 20.98Q323.14 21.85 321.88 22.32Q320.62 22.80 318.86 22.80Z" transform="translate(0, 0)"></path></g></svg>